<svg width="38" height="38" viewBox="0 0 38 38" fill="none" xmlns="http://www.w3.org/2000/svg">
<path d="M18.9988 0.00113624C29.4927 0.000508723 38 8.50738 38 19.0013C38 29.4947 29.4934 38.0013 19 38.0013C8.50659 38.0013 0 29.4948 0 19.0013V15.904C0.00011365 14.5815 1.26086 13.6234 2.53516 13.9773L14.7953 18.9108C15.2159 19.0277 15.4956 19.4103 15.6157 19.8299C15.9748 21.0845 17.1301 22.0027 18.5 22.0027C20.1569 22.0027 21.5 20.6595 21.5 19.0027C21.5 17.6328 20.5818 16.4774 19.3273 16.1183C18.9076 15.9982 18.525 15.7185 18.4082 15.2979L13.4746 2.53651C13.1207 1.26221 14.0789 0.00146596 15.4014 0.00135136L18.9988 0.00113624Z" fill="#1A1A1A"/>
<rect x="14.5" y="15.0013" width="8" height="8" rx="4" fill="#1A1A1A"/>
<path d="M21.65 15.8513C21.8433 15.658 22.1589 15.6566 22.3319 15.8682C22.6376 16.2421 22.8875 16.6594 23.073 17.1072C23.3217 17.7077 23.4498 18.3513 23.4498 19.0013C23.4498 19.6514 23.3217 20.295 23.073 20.8955C22.8242 21.4961 22.4596 22.0417 22 22.5013C21.5404 22.961 20.9947 23.3256 20.3942 23.5743C19.7937 23.8231 19.15 23.9511 18.5 23.9511C17.85 23.9511 17.2063 23.8231 16.6058 23.5743C16.158 23.3888 15.7408 23.1389 15.3669 22.8333C15.1553 22.6602 15.1567 22.3446 15.35 22.1513V22.1513C15.5433 21.958 15.8551 21.9609 16.0709 22.1286C16.3498 22.3452 16.657 22.524 16.9847 22.6597C17.4651 22.8587 17.98 22.9611 18.5 22.9611C19.02 22.9611 19.5349 22.8587 20.0154 22.6597C20.4958 22.4607 20.9323 22.169 21.3 21.8013C21.6677 21.4336 21.9594 20.9971 22.1584 20.5167C22.3574 20.0363 22.4598 19.5214 22.4598 19.0013C22.4598 18.4813 22.3574 17.9664 22.1584 17.486C22.0227 17.1584 21.8439 16.8512 21.6273 16.5723C21.4596 16.3564 21.4567 16.0446 21.65 15.8513V15.8513Z" fill="#E43A0F"/>
<circle cx="18.5" cy="19.0013" r="2" fill="#4E4E4E"/>
</svg>
